<svg version="1.1" preserveAspectRatio="xMidYMid meet" viewBox="0 -4.223 319.883 207.449" width="1440" height="900" xmlns="http://www.w3.org/2000/svg">
  <defs>
    <path d="M177 159.7l136 136c9.4 9.4 9.4 24.6 0 33.9l-22.6 22.6c-9.4 9.4-24.6 9.4-33.9 0L160 255.9l-96.4 96.4c-9.4 9.4-24.6 9.4-33.9 0L7 329.7c-9.4-9.4-9.4-24.6 0-33.9l136-136c9.4-9.5 24.6-9.5 34-.1z" id="c1yTvaEcl4"/>
  </defs>
  <g transform="matrix(1, 0, 0, 1, 0, -156)">
    <g>
      <g>
        <path d="M177 159.7l136 136c9.4 9.4 9.4 24.6 0 33.9l-22.6 22.6c-9.4 9.4-24.6 9.4-33.9 0L160 255.9l-96.4 96.4c-9.4 9.4-24.6 9.4-33.9 0L7 329.7c-9.4-9.4-9.4-24.6 0-33.9l136-136c9.4-9.5 24.6-9.5 34-.1z" transform="matrix(1, 0, 0, 1, 0, 0)" opacity="1" fill-opacity="1" style="fill: rgb(72, 72, 72);"/>
        <g>
          <path d="M177 159.7l136 136c9.4 9.4 9.4 24.6 0 33.9l-22.6 22.6c-9.4 9.4-24.6 9.4-33.9 0L160 255.9l-96.4 96.4c-9.4 9.4-24.6 9.4-33.9 0L7 329.7c-9.4-9.4-9.4-24.6 0-33.9l136-136c9.4-9.5 24.6-9.5 34-.1z" transform="matrix(1, 0, 0, 1, 0, 0)" opacity="1" fill-opacity="0" stroke="#000000" stroke-width="1" stroke-opacity="0" style="fill: rgb(72, 72, 72);"/>
        </g>
      </g>
    </g>
  </g>
</svg>