<?xml version="1.0" encoding="utf-8"?>
    <svg xmlns="http://www.w3.org/2000/svg" viewBox="0 0 1440 320">
        <g transform="translate(0.000000,468.000000) scale(0.100000,-0.100000)" fill="#000000" stroke="none">
            <path fill="#23272A" fill-opacity="1" 
              d="M3095 4025 c-784 -60 -1342 -168 -2570 -496 -247 -66 -467 -125 -487 -130 l-38 -10 0 -1694 0 -1695 9505 0 9505 0 -2 856 -3 857 -460 204 c-929 411 -1255 544 -1754 714 -1104 376 -2016 517 -2926 454 -450 -31 -767 -82 -1765 -280 -833 -165 -1064 -204 -1525 -256 -174 -20 -252 -23 -595 -23 -355 0 -413 2 -570 23 -707 93 -1250 251 -2565 749 -1302 492 -1791 629 -2555 713 -240 27 -932 35 -1195 14z"/>
          </g>
    </svg>