<?xml version="1.0" encoding="utf-8"?>
<svg viewBox="0 0 1212.845 191.82" xmlns="http://www.w3.org/2000/svg">
  <g transform="matrix(0.064015, 0, 0, -0.052108, 0.000077, 193.11618)" fill="#000000" stroke="none" style="">
    <path fill="#23272A" fill-opacity="1" d="M0 2095 l0 -1595 39 -20 c85 -43 189 -64 311 -64 262 1 457 118 602 360 117 197 246 321 423 409 136 67 216 86 381 92 216 8 367 -30 540 -136 155 -96 231 -181 369 -416 127 -216 174 -282 251 -356 115 -109 249 -172 404 -187 250 -26 466 55 627 232 49 54 69 85 284 451 174 296 254 371 454 426 187 51 400 -5 543 -144 110 -106 139 -171 212 -471 56 -234 77 -282 160 -366 101 -103 214 -150 361 -150 146 0 258 46 354 147 25 26 191 250 368 497 177 247 344 474 371 503 284 311 771 363 1128 122 132 -89 174 -144 456 -600 187 -302 219 -340 330 -392 63 -30 73 -32 182 -32 152 1 205 21 301 114 63 61 82 91 250 396 99 182 197 357 217 389 48 80 164 218 243 289 182 166 445 291 698 333 125 20 384 15 498 -11 272 -60 517 -197 704 -391 41 -43 141 -160 221 -260 213 -263 346 -380 533 -470 177 -84 351 -125 535 -125 213 -1 376 34 556 120 148 71 211 118 379 281 196 191 257 236 395 293 92 38 171 55 291 66 341 28 665 -126 856 -409 50 -74 98 -177 209 -446 127 -311 143 -344 201 -405 160 -171 433 -185 621 -31 57 47 65 59 306 469 113 194 228 383 254 420 163 234 418 382 729 424 257 34 587 -72 776 -250 l37 -35 0 1262 0 1262 -9480 0 -9480 0 0 -1595z"/>
  </g>
</svg>